<?xml version="1.0" standalone="no"?><!DOCTYPE svg PUBLIC "-//W3C//DTD SVG 1.1//EN" "http://www.w3.org/Graphics/SVG/1.1/DTD/svg11.dtd"><svg t="1586941827731" class="icon" viewBox="0 0 1024 1024" version="1.1" xmlns="http://www.w3.org/2000/svg" p-id="4169" xmlns:xlink="http://www.w3.org/1999/xlink" width="128" height="128"><defs><style type="text/css"></style></defs><path d="M931.072 176.896h-144.384V64.192c0-32-23.552-58.624-54.272-63.36H291.584c-30.72 4.736-54.272 31.36-54.272 63.36v112.64H92.928C41.728 176.896 0 218.624 0 269.888v159.936c0 17.792 13.504 35.52 37.568 52.608 68.736 48.64 218.688 82.176 401.28 89.536 24.192 0.96 48.448 1.472 72.576 1.472 153.408 0 300.928-19.392 397.248-53.12 39.36-13.824 69.312-29.44 89.216-46.528 16.96-14.592 26.112-28.928 26.112-43.968v-160c0-51.2-41.664-92.864-92.928-92.864z m-588.864 0V115.2a16.64 16.64 0 0 1 16.576-16.64h306.432a16.64 16.64 0 0 1 16.64 16.64v61.696H342.144z" p-id="4170"></path><path d="M931.904 586.56c-87.808 30.72-209.472 50.176-342.016 55.552v118.784a11.712 11.712 0 0 1-11.712 11.712H445.824a11.712 11.712 0 0 1-11.712-11.712v-118.848C238.912 633.984 81.216 597.504 0 541.824v388.48c0 51.2 41.664 92.928 92.928 92.928h838.144c51.2 0 92.928-41.728 92.928-92.928V542.016c-24.32 16.64-55.232 31.616-92.096 44.544z" p-id="4171"></path></svg>